<?xml version="1.0" encoding="UTF-8" standalone="no"?>
<svg
   xmlns:dc="http://purl.org/dc/elements/1.1/"
   xmlns:cc="http://creativecommons.org/ns#"
   xmlns:rdf="http://www.w3.org/1999/02/22-rdf-syntax-ns#"
   xmlns:svg="http://www.w3.org/2000/svg"
   xmlns="http://www.w3.org/2000/svg"
   xmlns:sodipodi="http://sodipodi.sourceforge.net/DTD/sodipodi-0.dtd"
   xmlns:inkscape="http://www.inkscape.org/namespaces/inkscape"
   aria-hidden="true"
   focusable="false"
   data-prefix="fas"
   data-icon="envelope-square"
   class="svg-inline--fa fa-envelope-square fa-w-14"
   role="img"
   viewBox="0 0 448 448"
   version="1.1"
   id="svg4"
   sodipodi:docname="envelope-square-solid.svg"
   inkscape:version="0.92.3 (2405546, 2018-03-11)"
   width="448"
   height="448">
  <metadata
     id="metadata10">
    <rdf:RDF>
      <cc:Work
         rdf:about="">
        <dc:format>image/svg+xml</dc:format>
        <dc:type
           rdf:resource="http://purl.org/dc/dcmitype/StillImage" />
      </cc:Work>
    </rdf:RDF>
  </metadata>
  <defs
     id="defs8" />
  <sodipodi:namedview
     pagecolor="#ffffff"
     bordercolor="#666666"
     borderopacity="1"
     objecttolerance="10"
     gridtolerance="10"
     guidetolerance="10"
     inkscape:pageopacity="0"
     inkscape:pageshadow="2"
     inkscape:window-width="1920"
     inkscape:window-height="1057"
     id="namedview6"
     showgrid="false"
     inkscape:zoom="0.4609375"
     inkscape:cx="-515.79662"
     inkscape:cy="224"
     inkscape:window-x="-8"
     inkscape:window-y="-8"
     inkscape:window-maximized="1"
     inkscape:current-layer="svg4" />
  <path
     style="fill:#004638;fill-opacity:0"
     d="m 448,48 v 352 c 0,26.51 -21.49,48 -48,48 H 48 C 21.49,448 0,426.51 0,400 V 48 C 0,21.49 21.49,0 48,0 h 352 c 26.51,0 48,21.49 48,48 z"
     id="path816" />
  <path
     style="fill:#ffffff;fill-opacity:1"
     d="m 224,255.999 c 14.491,0.226 35.383,-18.239 45.883,-25.894 C 360.566,164.291 359.629,164.136 384,145.167 V 120 C 384,106.745 373.255,96 360,96 H 88 c -13.255,0 -24,10.745 -24,24 v 25.167 c 24.353,18.954 23.429,19.12 114.117,84.937 10.516,7.668 31.38,26.113 45.883,25.895 z"
     id="path814" />
  <path
     style="fill:#ffffff;fill-opacity:1"
     d="m 288.717,255.974 c -13.683,9.984 -37.833,32.159 -64.72,32.025 -26.719,0.135 -50.532,-21.669 -64.694,-32.01 C 97.329,211.011 77.958,196.569 64,185.775 V 328 c 0,13.255 10.745,24 24,24 h 272 c 13.255,0 24,-10.745 24,-24 V 185.775 c -13.958,10.793 -33.325,25.234 -95.283,70.199 z"
     id="path2" />
</svg>
