<?xml version="1.0" encoding="UTF-8" standalone="no"?>
<svg
   xmlns:dc="http://purl.org/dc/elements/1.1/"
   xmlns:cc="http://creativecommons.org/ns#"
   xmlns:rdf="http://www.w3.org/1999/02/22-rdf-syntax-ns#"
   xmlns:svg="http://www.w3.org/2000/svg"
   xmlns="http://www.w3.org/2000/svg"
   xmlns:sodipodi="http://sodipodi.sourceforge.net/DTD/sodipodi-0.dtd"
   xmlns:inkscape="http://www.inkscape.org/namespaces/inkscape"
   aria-hidden="true"
   focusable="false"
   data-prefix="fab"
   data-icon="linkedin"
   class="svg-inline--fa fa-linkedin fa-w-14"
   role="img"
   viewBox="0 0 448 512"
   version="1.1"
   id="svg4"
   sodipodi:docname="linkedin-brands.svg"
   inkscape:version="0.92.3 (2405546, 2018-03-11)">
  <metadata
     id="metadata10">
    <rdf:RDF>
      <cc:Work
         rdf:about="">
        <dc:format>image/svg+xml</dc:format>
        <dc:type
           rdf:resource="http://purl.org/dc/dcmitype/StillImage" />
      </cc:Work>
    </rdf:RDF>
  </metadata>
  <defs
     id="defs8" />
  <sodipodi:namedview
     pagecolor="#ffffff"
     bordercolor="#666666"
     borderopacity="1"
     objecttolerance="10"
     gridtolerance="10"
     guidetolerance="10"
     inkscape:pageopacity="0"
     inkscape:pageshadow="2"
     inkscape:window-width="1680"
     inkscape:window-height="1027"
     id="namedview6"
     showgrid="false"
     inkscape:zoom="0.4609375"
     inkscape:cx="-145.89831"
     inkscape:cy="256"
     inkscape:window-x="1912"
     inkscape:window-y="22"
     inkscape:window-maximized="1"
     inkscape:current-layer="svg4" />
  <path
     style="fill:#00b5b5;fill-opacity:0"
     d="M 416,32 H 31.9 C 14.3,32 0,46.5 0,64.3 V 447.7 C 0,465.5 14.3,480 31.9,480 H 416 c 17.6,0 32,-14.5 32,-32.3 V 64.3 C 448,46.5 433.6,32 416,32 Z"
     id="path818" />
  <path
     style="fill:#ffffff;fill-opacity:1"
     d="M 135.4,416 H 69 V 202.2 h 66.5 V 416 Z"
     id="path816" />
  <path
     style="fill:#ffffff;fill-opacity:1"
     d="M 102.2,173 C 80.9,173 63.7,155.7 63.7,134.5 63.7,113.3 80.9,96 102.2,96 c 21.2,0 38.5,17.3 38.5,38.5 0,21.3 -17.2,38.5 -38.5,38.5 z"
     id="path814" />
  <path
     style="fill:#ffffff;fill-opacity:1"
     d="M 384.3,416 H 317.9 V 312 c 0,-24.8 -0.5,-56.7 -34.5,-56.7 -34.6,0 -39.9,27 -39.9,54.9 V 416 H 177.1 V 202.2 h 63.7 v 29.2 h 0.9 c 8.9,-16.8 30.6,-34.5 62.9,-34.5 67.2,0 79.7,44.3 79.7,101.9 z"
     id="path2" />
</svg>
